<svg xmlns="http://www.w3.org/2000/svg" viewBox="0 0 512 512">
  <defs>
    <filter id="glow" x="-50%" y="-50%" width="200%" height="200%">
      <feGaussianBlur in="SourceGraphic" stdDeviation="8" result="blur" />
      <feMerge>
        <feMergeNode in="blur" />
        <feMergeNode in="blur" />
        <feMergeNode in="SourceGraphic" />
      </feMerge>
    </filter>
    <filter id="glow-subtle" x="-50%" y="-50%" width="200%" height="200%">
      <feGaussianBlur in="SourceGraphic" stdDeviation="4" result="blur" />
      <feMerge>
        <feMergeNode in="blur" />
        <feMergeNode in="SourceGraphic" />
      </feMerge>
    </filter>
    <radialGradient id="bgGrad" cx="45%" cy="40%" r="55%">
      <stop offset="0%" stop-color="#F8FAFF" />
      <stop offset="100%" stop-color="#FFFFFF" />
    </radialGradient>
    <radialGradient id="nodeGrad" cx="35%" cy="30%" r="65%">
      <stop offset="0%" stop-color="#60A5FA" stop-opacity="1" />
      <stop offset="100%" stop-color="#3B82F6" stop-opacity="1" />
    </radialGradient>
    <linearGradient id="spineGrad" x1="0%" y1="0%" x2="0%" y2="100%">
      <stop offset="0%" stop-color="#60A5FA" />
      <stop offset="40%" stop-color="#3B82F6" />
      <stop offset="100%" stop-color="#2563EB" stop-opacity="0.6" />
    </linearGradient>
    <linearGradient id="bowlGrad" x1="0%" y1="0%" x2="100%" y2="100%">
      <stop offset="0%" stop-color="#60A5FA" />
      <stop offset="100%" stop-color="#3B82F6" />
    </linearGradient>
  </defs>

  <rect width="512" height="512" rx="112" fill="url(#bgGrad)" />

  <path d="M 195 75
           Q 265 68 340 108
           T 385 195
           T 350 285
           T 245 320
           L 195 235
           L 195 365
           L 195 448"
        fill="none" stroke="#60A5FA" stroke-width="2" stroke-dasharray="4 10" opacity="0.4" />

  <g stroke-linecap="round" stroke-linejoin="round">
    <line x1="195" y1="128" x2="195" y2="235" stroke="url(#spineGrad)" stroke-width="7" filter="url(#glow-subtle)" />
    <line x1="195" y1="235" x2="195" y2="365" stroke="#3B82F6" stroke-width="6" />
    <line x1="195" y1="365" x2="195" y2="430" stroke="#2563EB" stroke-width="5" opacity="0.6" />

    <line x1="195" y1="105" x2="260" y2="95" stroke="url(#bowlGrad)" stroke-width="5" />
    <line x1="260" y1="95" x2="330" y2="125" stroke="#3B82F6" stroke-width="5" />
    <line x1="330" y1="125" x2="375" y2="195" stroke="#3B82F6" stroke-width="5" />
    <line x1="375" y1="195" x2="360" y2="275" stroke="#3B82F6" stroke-width="5" />
    <line x1="360" y1="275" x2="300" y2="320" stroke="#3B82F6" stroke-width="4" />
    <line x1="300" y1="320" x2="245" y2="305" stroke="#3B82F6" stroke-width="4" />
    <line x1="245" y1="305" x2="195" y2="235" stroke="#3B82F6" stroke-width="4" />

    <line x1="195" y1="235" x2="115" y2="155" stroke="#3B82F6" stroke-width="2.5" stroke-dasharray="5 6" opacity="0.35" />
    <line x1="330" y1="125" x2="425" y2="165" stroke="#3B82F6" stroke-width="2.5" stroke-dasharray="5 6" opacity="0.35" />
    <line x1="195" y1="365" x2="125" y2="320" stroke="#3B82F6" stroke-width="2.5" stroke-dasharray="5 6" opacity="0.35" />
    <line x1="300" y1="320" x2="285" y2="425" stroke="#3B82F6" stroke-width="2.5" stroke-dasharray="5 6" opacity="0.35" />
    <line x1="260" y1="95" x2="360" y2="65" stroke="#3B82F6" stroke-width="2.5" stroke-dasharray="5 6" opacity="0.35" />

    <line x1="375" y1="195" x2="425" y2="165" stroke="#3B82F6" stroke-width="2" stroke-dasharray="3 8" opacity="0.25" />
    <line x1="115" y1="155" x2="125" y2="320" stroke="#3B82F6" stroke-width="2" stroke-dasharray="3 8" opacity="0.2" />
    <line x1="245" y1="305" x2="285" y2="425" stroke="#3B82F6" stroke-width="2" stroke-dasharray="3 8" opacity="0.2" />
  </g>

  <circle cx="195" cy="105" r="24" fill="url(#nodeGrad)" filter="url(#glow)" />
  <circle cx="195" cy="105" r="7" fill="#ffffff" opacity="0.3" />
  <circle cx="195" cy="235" r="24" fill="url(#nodeGrad)" filter="url(#glow)" />
  <circle cx="195" cy="235" r="7" fill="#ffffff" opacity="0.25" />
  <circle cx="195" cy="365" r="21" fill="#3B82F6" filter="url(#glow-subtle)" />
  <circle cx="195" cy="430" r="17" fill="#2563EB" opacity="0.7" />

  <circle cx="260" cy="95" r="18" fill="url(#nodeGrad)" filter="url(#glow-subtle)" />
  <circle cx="260" cy="95" r="5" fill="#ffffff" opacity="0.2" />
  <circle cx="330" cy="125" r="18" fill="url(#nodeGrad)" filter="url(#glow-subtle)" />
  <circle cx="330" cy="125" r="5" fill="#ffffff" opacity="0.2" />
  <circle cx="375" cy="195" r="18" fill="url(#nodeGrad)" />
  <circle cx="375" cy="195" r="5" fill="#ffffff" opacity="0.15" />
  <circle cx="360" cy="275" r="18" fill="#3B82F6" />
  <circle cx="300" cy="320" r="15" fill="#3B82F6" opacity="0.85" />
  <circle cx="245" cy="305" r="15" fill="#3B82F6" opacity="0.85" />

  <circle cx="115" cy="155" r="7" fill="none" stroke="#3B82F6" stroke-width="2.5" opacity="0.5" />
  <circle cx="115" cy="155" r="3" fill="#60A5FA" opacity="0.3" />
  <circle cx="425" cy="165" r="7" fill="none" stroke="#3B82F6" stroke-width="2.5" opacity="0.5" />
  <circle cx="425" cy="165" r="3" fill="#60A5FA" opacity="0.3" />
  <circle cx="125" cy="320" r="7" fill="none" stroke="#3B82F6" stroke-width="2.5" opacity="0.5" />
  <circle cx="125" cy="320" r="3" fill="#60A5FA" opacity="0.3" />
  <circle cx="285" cy="425" r="7" fill="none" stroke="#3B82F6" stroke-width="2.5" opacity="0.5" />
  <circle cx="285" cy="425" r="3" fill="#60A5FA" opacity="0.3" />
  <circle cx="360" cy="65" r="6" fill="none" stroke="#60A5FA" stroke-width="2" opacity="0.4" />

  <circle cx="150" cy="128" r="4" fill="#3B82F6" opacity="0.35" />
  <circle cx="228" cy="155" r="4" fill="#3B82F6" opacity="0.35" />
  <circle cx="400" cy="240" r="4" fill="#3B82F6" opacity="0.35" />
  <circle cx="218" cy="400" r="4" fill="#3B82F6" opacity="0.35" />
  <circle cx="145" cy="385" r="3" fill="#3B82F6" opacity="0.3" />
  <circle cx="345" cy="355" r="3.5" fill="#3B82F6" opacity="0.3" />
</svg>
